#N canvas 0 58 1024 673 12;
#X obj 55 50 udpreceive 9001;
#X obj 55 100 unpackOSC;
#X obj 55 140 routeOSC /ino;
#X obj 55 177 routeOSC /step /texture;
#X obj 174 633 readsf~;
#X obj 419 701 dac~;
#X obj 201 327 coll;
#C restore;
#X obj 719 258 vradio 15 1 0 5 empty empty empty 0 -8 0 10 -262144
-1 -1 3;
#X floatatom 761 120 5 0 0 0 - - -;
#X msg 762 149 set \$1;
#X obj 208 216 loadbang;
#X msg 198 518 open \$1;
#X msg 54 521 0;
#X msg 657 54 1;
#X msg 811 54 2;
#X msg 766 50 0;
#X obj 781 280 bng 15 250 50 0 empty empty empty 17 7 0 10 -262144
-1 -1;
#X msg 204 279 0 wood1.wav;
#X msg 292 279 1 mud1.wav;
#X msg 377 280 2 metal1.wav;
#X msg 580 279 4 stone1.wav;
#X msg 129 361 2;
#X obj 51 414 moses 1;
#X obj 136 431 moses 2;
#X obj 132 274 moses 2;
#X obj 322 455 coll;
#C restore;
#X obj 324 353 loadbang;
#X msg 599 416 3 grass2.wav;
#X msg 320 416 0 wood2.wav;
#X msg 408 416 1 mud2.wav;
#X msg 493 417 2 metal2.wav;
#X msg 483 279 3 grass1.wav;
#X msg 697 417 4 stone2.wav;
#X msg 299 517 open \$1;
#X obj 136 482 t b b;
#X obj 268 453 t b b;
#X obj 292 635 readsf~;
#X msg 133 519 1;
#X msg 266 519 1;
#X obj 52 236 unpack \$1 \$2;
#X obj 216 581 spigot;
#X msg 60 360 0;
#X msg 95 360 1;
#X obj 382 522 tgl 15 0 empty empty empty 17 7 0 10 -262144 -1 -1 0
1;
#X obj 276 581 spigot;
#X obj 393 637 readsf~;
#X obj 492 638 readsf~;
#X obj 393 599 spigot;
#X obj 490 603 spigot;
#X obj 615 517 tgl 15 0 empty empty empty 17 7 0 10 -262144 -1 -1 1
1;
#X floatatom 71 274 5 0 0 0 - - -;
#X floatatom 6 274 5 0 0 0 - - -;
#X connect 0 0 1 0;
#X connect 1 0 2 0;
#X connect 2 0 3 0;
#X connect 3 0 39 0;
#X connect 3 1 8 0;
#X connect 4 0 5 1;
#X connect 6 0 11 0;
#X connect 7 0 6 0;
#X connect 7 0 25 0;
#X connect 8 0 9 0;
#X connect 9 0 7 0;
#X connect 9 0 16 0;
#X connect 10 0 17 0;
#X connect 10 0 18 0;
#X connect 10 0 19 0;
#X connect 10 0 31 0;
#X connect 10 0 20 0;
#X connect 11 0 4 0;
#X connect 11 0 45 0;
#X connect 12 0 4 0;
#X connect 12 0 36 0;
#X connect 13 0 8 0;
#X connect 14 0 8 0;
#X connect 15 0 8 0;
#X connect 17 0 6 0;
#X connect 18 0 6 0;
#X connect 19 0 6 0;
#X connect 20 0 6 0;
#X connect 21 0 22 0;
#X connect 22 0 12 0;
#X connect 22 1 23 0;
#X connect 23 0 34 0;
#X connect 23 1 35 0;
#X connect 24 0 40 1;
#X connect 24 0 44 1;
#X connect 24 1 47 1;
#X connect 24 1 48 1;
#X connect 25 0 33 0;
#X connect 26 0 28 0;
#X connect 26 0 29 0;
#X connect 26 0 30 0;
#X connect 26 0 27 0;
#X connect 26 0 32 0;
#X connect 27 0 25 0;
#X connect 28 0 25 0;
#X connect 29 0 25 0;
#X connect 30 0 25 0;
#X connect 31 0 6 0;
#X connect 32 0 25 0;
#X connect 33 0 36 0;
#X connect 33 0 46 0;
#X connect 34 0 7 0;
#X connect 34 0 37 0;
#X connect 34 1 11 0;
#X connect 35 0 7 0;
#X connect 35 0 38 0;
#X connect 35 1 33 0;
#X connect 36 0 5 1;
#X connect 37 0 40 0;
#X connect 37 0 47 0;
#X connect 38 0 44 0;
#X connect 38 0 48 0;
#X connect 39 0 22 0;
#X connect 39 0 51 0;
#X connect 39 1 24 0;
#X connect 39 1 50 0;
#X connect 40 0 4 0;
#X connect 41 0 22 0;
#X connect 42 0 22 0;
#X connect 43 0 40 1;
#X connect 43 0 44 1;
#X connect 44 0 36 0;
#X connect 45 0 5 0;
#X connect 46 0 5 0;
#X connect 47 0 45 0;
#X connect 48 0 46 0;
#X connect 49 0 47 1;
#X connect 49 0 48 1;
